<svg xmlns="http://www.w3.org/2000/svg" width="95 * 2" height="65 * 2" viewBox="0 0 95 65" fill="none">
<g clip-path="url(#clip0_1_2293)">
<path fill-rule="evenodd" clip-rule="evenodd" d="M1.11572 0.512451L1.96735 6.16608C2.24935 8.05204 3.27381 9.74994 4.81591 10.8871L19.4111 21.7136L2.99518 12.9708L3.87618 18.7993C3.96065 19.3812 4.16026 19.9408 4.46351 20.4459C4.77168 20.9672 5.1809 21.4229 5.66754 21.7864L22.9497 34.5508L8.16369 26.6386L14.7124 37.6399C17.1695 41.7791 20.5563 45.2996 24.609 47.9272L46.7807 62.8772L50.5543 60.6332L47.6176 56.699L51.8317 59.861L53.9755 58.5058L50.7892 54.4259L55.1942 57.719L57.2645 56.4076L53.9755 52.1382L58.5273 55.5479L60.5536 54.2656L57.2058 49.8943L61.9191 53.4351L66.4122 50.5937L46.7366 37.9167L37.0016 39.0824L32.7875 34.0262L38.1176 31.7968L33.4189 25.1669C31.8059 22.9097 29.8202 20.9392 27.5456 19.3384L1.11572 0.512451Z" fill="#C0C0C0"/>
<path fill-rule="evenodd" clip-rule="evenodd" d="M93.6203 0.512451L67.1905 19.2947C64.9159 20.8954 62.9302 22.866 61.3171 25.1232L56.4129 32.0154H55.855L46.7807 28.8097L33.9916 34.2011L37.3687 38.2373L46.7807 36.9987L67.1317 50.1128L70.4648 47.8543C74.3067 45.2657 77.5255 41.8675 79.8915 37.9022L86.6017 26.624L71.8157 34.5362L89.0979 21.7718C89.5845 21.4083 89.9938 20.9527 90.3019 20.4313C90.6052 19.9262 90.8048 19.3666 90.8893 18.7847L91.7702 12.9563L75.3544 21.699L89.9495 10.8871C91.4916 9.74994 92.5161 8.05204 92.7981 6.16608L93.6203 0.512451Z" fill="#909090"/>
<path fill-rule="evenodd" clip-rule="evenodd" d="M43.8294 21.4076H41.436L42.4491 14.5883H42.8015L43.8294 21.4076ZM39.9236 14.5883H41.3919V14.7049L40.6871 15.1274L38.9839 26.6532H40.6871L41.2157 23.0833H44.1524L44.6957 26.6532H46.3843L44.2552 12.9126H39.9236V14.5883ZM50.011 12.9709H47.3387V14.632H49.0272V14.7631L48.3371 15.1857V26.6532H50.011V20.1545H50.892L53.9755 26.6532H55.8256L52.375 19.3676L55.4438 12.9709H53.535L50.892 18.4788H50.011V12.9709Z" fill="#909090"/>
</g>
<defs>
<clipPath id="clip0_1_2293">
<rect width="94" height="64" fill="white" transform="translate(0.429199 0.104004)"/>
</clipPath>
</defs>
</svg>